<svg width="184" height="30" viewBox="0 0 184 30" fill="none" xmlns="http://www.w3.org/2000/svg">
<path d="M6.5625 2.59375C7.02083 2.34375 7.54167 2.125 8.125 1.9375C8.70833 1.72917 9.3125 1.57292 9.9375 1.46875C10.5625 1.34375 11.1875 1.27083 11.8125 1.25C12.4583 1.22917 13.0625 1.28125 13.625 1.40625C15.2708 1.76042 16.6562 2.4375 17.7812 3.4375C18.9062 4.4375 19.7708 5.60417 20.375 6.9375C21 8.27083 21.3646 9.70833 21.4688 11.25C21.5938 12.7708 21.4688 14.2396 21.0938 15.6562C20.9688 16.0729 20.7604 16.5521 20.4688 17.0938C20.2188 17.5521 19.875 18.1146 19.4375 18.7812C19 19.4271 18.4271 20.1458 17.7188 20.9375C17.8854 21.3125 18.0521 21.6146 18.2188 21.8438C18.4062 22.0521 18.5833 22.2083 18.75 22.3125C18.9375 22.4375 19.1146 22.5208 19.2812 22.5625C19.4479 22.5833 19.6458 22.5938 19.875 22.5938C20.0625 22.5938 20.2812 22.5833 20.5312 22.5625C20.8021 22.5208 21.0938 22.4583 21.4062 22.375L16.5312 26.4375C16.4688 26.1042 16.3958 25.8125 16.3125 25.5625C16.25 25.3333 16.1979 25.1354 16.1562 24.9688L15.9688 24.5C15.8854 24.3958 15.8021 24.2604 15.7188 24.0938C15.6354 23.9688 15.5417 23.8125 15.4375 23.625C15.3333 23.4375 15.1979 23.2292 15.0312 23C13.7188 23.5 12.5208 23.8229 11.4375 23.9688C10.375 24.1146 9.40625 24.125 8.53125 24C7.65625 23.8958 6.875 23.6979 6.1875 23.4062C5.5 23.0938 4.89583 22.7396 4.375 22.3438C3.16667 21.4062 2.21875 20.1771 1.53125 18.6562C0.760417 16.5729 0.40625 14.6667 0.46875 12.9375C0.552083 11.1875 0.885417 9.63542 1.46875 8.28125C2.05208 6.90625 2.80208 5.73958 3.71875 4.78125C4.65625 3.82292 5.60417 3.09375 6.5625 2.59375ZM11.1875 18.4688C10.875 18.3854 10.5833 18.3542 10.3125 18.375C10.0833 18.3958 9.85417 18.4688 9.625 18.5938C9.39583 18.7188 9.22917 18.9479 9.125 19.2812C9.39583 19.5521 9.64583 19.7812 9.875 19.9688C10.125 20.1354 10.3333 20.2708 10.5 20.375C10.7083 20.5 10.8958 20.6042 11.0625 20.6875C11.3542 20.7917 11.6458 20.875 11.9375 20.9375C12.1875 20.9792 12.4583 21 12.75 21C13.0625 20.9792 13.3542 20.8958 13.625 20.75C13.4167 20.3125 13.1667 19.9479 12.875 19.6562C12.6042 19.3438 12.3438 19.1042 12.0938 18.9375C11.8021 18.7292 11.5 18.5729 11.1875 18.4688ZM7.875 17.3438C8.22917 16.8021 8.61458 16.4167 9.03125 16.1875C9.44792 15.9583 9.84375 15.7917 10.2188 15.6875C10.6562 15.6042 11.1042 15.5729 11.5625 15.5938C12 15.6979 12.4375 15.875 12.875 16.125C13.25 16.3542 13.6458 16.6771 14.0625 17.0938C14.4792 17.4896 14.8646 18.0312 15.2188 18.7188C15.5521 18.2188 15.8021 17.6979 15.9688 17.1562C16.1354 16.6146 16.2604 16.125 16.3438 15.6875C16.4271 15.1667 16.4688 14.6562 16.4688 14.1562C16.4271 13.3854 16.3438 12.5729 16.2188 11.7188C16.0938 10.8646 15.9062 10.0208 15.6562 9.1875C15.4271 8.35417 15.1354 7.5625 14.7812 6.8125C14.4271 6.0625 14 5.41667 13.5 4.875C13.0208 4.33333 12.4583 3.92708 11.8125 3.65625C11.1875 3.38542 10.4792 3.3125 9.6875 3.4375C8.8125 3.5625 8.09375 3.91667 7.53125 4.5C6.98958 5.08333 6.5625 5.77083 6.25 6.5625C5.95833 7.33333 5.77083 8.16667 5.6875 9.0625C5.625 9.9375 5.63542 10.7292 5.71875 11.4375C5.78125 12.0208 5.90625 12.6354 6.09375 13.2812C6.26042 13.8229 6.47917 14.4479 6.75 15.1562C7.02083 15.8646 7.39583 16.5938 7.875 17.3438ZM23.125 9.625C23.6667 9.72917 24.1354 9.8125 24.5312 9.875C24.9479 9.91667 25.3021 9.95833 25.5938 10C25.9271 10.0417 26.2188 10.0729 26.4688 10.0938C26.7188 10.1146 27.0104 10.1354 27.3438 10.1562C27.9062 10.1771 28.6979 10.1771 29.7188 10.1562C29.1146 10.1146 28.6354 10.2708 28.2812 10.625C27.9479 10.9583 27.6979 11.3438 27.5312 11.7812C27.3229 12.3021 27.2083 12.9062 27.1875 13.5938C27.1458 14.5104 27.1667 15.3438 27.25 16.0938C27.3542 16.8229 27.5312 17.4479 27.7812 17.9688C28.0521 18.4688 28.4062 18.8438 28.8438 19.0938C29.2812 19.3229 29.8438 19.3854 30.5312 19.2812C31.2188 19.1771 31.7396 18.9375 32.0938 18.5625C32.4688 18.1667 32.7396 17.6875 32.9062 17.125C33.0729 16.5417 33.1667 15.8854 33.1875 15.1562C33.2292 14.4271 33.2604 13.6667 33.2812 12.875C33.2812 12.0833 33.2708 11.5208 33.25 11.1875C33.25 10.8333 33.2396 10.6042 33.2188 10.5C33.1979 10.3958 33.1667 10.3542 33.125 10.375C33.0833 10.375 33.0312 10.3229 32.9688 10.2188C32.9271 10.1354 32.8646 10.0521 32.7812 9.96875C32.7188 9.88542 32.6354 9.79167 32.5312 9.6875C32.4271 9.5625 32.3125 9.4375 32.1875 9.3125C32.7292 9.33333 33.2083 9.35417 33.625 9.375C34.0625 9.375 34.4271 9.38542 34.7188 9.40625C35.0521 9.42708 35.3438 9.44792 35.5938 9.46875C35.8229 9.48958 36.125 9.52083 36.5 9.5625C36.8125 9.60417 37.2188 9.64583 37.7188 9.6875C38.2188 9.72917 38.8125 9.79167 39.5 9.875C39.0208 9.97917 38.6354 10.1354 38.3438 10.3438C38.0521 10.5521 37.8229 10.7604 37.6562 10.9688C37.4688 11.1979 37.3333 11.4479 37.25 11.7188C37.1875 12.0729 37.1875 12.6146 37.25 13.3438C37.2917 13.9896 37.3958 14.875 37.5625 16C37.7292 17.125 37.9896 18.6042 38.3438 20.4375L35.875 21.9062L35.375 17.75C34.7708 18.7708 34.125 19.5625 33.4375 20.125C32.7708 20.6667 32.1458 21.0625 31.5625 21.3125C30.875 21.6042 30.2083 21.7708 29.5625 21.8125C28.7083 21.8125 27.9688 21.7604 27.3438 21.6562C26.7396 21.5312 26.2188 21.375 25.7812 21.1875C25.3438 21 24.9896 20.7917 24.7188 20.5625C24.4688 20.3125 24.2812 20.0625 24.1562 19.8125C23.8646 19.2917 23.7083 18.625 23.6875 17.8125C23.6667 16.9792 23.6979 16.1562 23.7812 15.3438C23.8646 14.5104 23.9583 13.75 24.0625 13.0625C24.1667 12.375 24.1979 11.9062 24.1562 11.6562C24.1146 11.4688 24.0521 11.2604 23.9688 11.0312C23.8854 10.8438 23.7812 10.6354 23.6562 10.4062C23.5312 10.1562 23.3542 9.89583 23.125 9.625ZM39.9688 10.0312L45.7188 10.0938C45.3854 11.3646 45.1354 12.4479 44.9688 13.3438C44.8229 14.2396 44.7292 14.9896 44.6875 15.5938C44.6042 16.2812 44.5833 16.8646 44.625 17.3438C44.6875 17.7812 44.7917 18.25 44.9375 18.75C45.0625 19.1667 45.25 19.6458 45.5 20.1875C45.75 20.7292 46.0833 21.2708 46.5 21.8125C46.25 21.7292 45.9792 21.6667 45.6875 21.625C45.3958 21.5833 45.125 21.5521 44.875 21.5312C44.5833 21.5104 44.2917 21.5104 44 21.5312C43.7083 21.5521 43.3854 21.5833 43.0312 21.625C42.7396 21.6667 42.3854 21.7188 41.9688 21.7812C41.5521 21.8438 41.1146 21.9271 40.6562 22.0312C40.9688 21.0938 41.2083 20.2812 41.375 19.5938C41.5625 18.9062 41.6979 18.3333 41.7812 17.875C41.8646 17.3333 41.9167 16.8958 41.9375 16.5625C41.9375 16.1458 41.9375 15.6771 41.9375 15.1562C41.9375 14.6146 41.9375 14.0938 41.9375 13.5938C41.9375 13.0938 41.9271 12.6562 41.9062 12.2812C41.8854 11.8854 41.8438 11.6354 41.7812 11.5312L41.4688 11.2188C41.3438 11.1146 41.1562 10.9688 40.9062 10.7812C40.6771 10.5729 40.3646 10.3229 39.9688 10.0312ZM42.1875 5.21875C42.625 4.98958 43.0625 4.92708 43.5 5.03125C43.9583 5.13542 44.3125 5.33333 44.5625 5.625C44.8125 5.91667 44.8958 6.26042 44.8125 6.65625C44.75 7.05208 44.4167 7.4375 43.8125 7.8125C43.2083 8.16667 42.6771 8.29167 42.2188 8.1875C41.7604 8.08333 41.4375 7.86458 41.25 7.53125C41.0625 7.19792 41.0312 6.8125 41.1562 6.375C41.2812 5.91667 41.625 5.53125 42.1875 5.21875ZM65.0938 12.9062C64.8438 12.8646 64.5312 12.8333 64.1562 12.8125C63.8021 12.7917 63.4583 12.7812 63.125 12.7812C62.75 12.7812 62.3542 12.7917 61.9375 12.8125C61.5 12.8333 61.0625 12.8542 60.625 12.875C60.25 12.8958 59.8229 12.9271 59.3438 12.9688C58.8854 12.9896 58.4375 13.0208 58 13.0625C58.1667 12.9792 58.3125 12.8646 58.4375 12.7188C58.5833 12.5729 58.7083 12.4271 58.8125 12.2812C58.9167 12.1146 59.0104 11.9375 59.0938 11.75C59.1979 11.4375 59.1875 11.0625 59.0625 10.625C58.9375 10.1667 58.7083 9.75 58.375 9.375C58.0625 9 57.6562 8.70833 57.1562 8.5C56.6771 8.27083 56.1458 8.21875 55.5625 8.34375C54.9375 8.48958 54.375 8.70833 53.875 9C53.3958 9.29167 52.9896 9.69792 52.6562 10.2188C52.3438 10.7188 52.1146 11.3438 51.9688 12.0938C51.8438 12.8229 51.8125 13.6979 51.875 14.7188C51.9583 15.9896 52.1667 17 52.5 17.75C52.8333 18.5 53.2396 19.0625 53.7188 19.4375C54.1979 19.8125 54.7188 20.0417 55.2812 20.125C55.8646 20.1875 56.4375 20.1875 57 20.125C57.3958 20.0417 57.7604 19.8646 58.0938 19.5938C58.3646 19.3646 58.6146 19.0312 58.8438 18.5938C59.0729 18.1562 59.1771 17.5521 59.1562 16.7812L62.9688 16.625C62.5312 17.8542 62 18.8333 61.375 19.5625C60.75 20.2708 60.1458 20.8229 59.5625 21.2188C58.875 21.6771 58.1875 21.9896 57.5 22.1562C56.6458 22.3021 55.8854 22.3646 55.2188 22.3438C54.5521 22.3021 53.9479 22.1979 53.4062 22.0312C52.8646 21.8646 52.3646 21.6562 51.9062 21.4062C51.4479 21.1562 51.0104 20.8854 50.5938 20.5938C50.3229 20.4062 50.0208 20.0938 49.6875 19.6562C49.3542 19.2188 49.0417 18.6979 48.75 18.0938C48.4583 17.4688 48.2188 16.7812 48.0312 16.0312C47.8438 15.2812 47.7708 14.5104 47.8125 13.7188C47.8542 12.9062 48.0417 12.0938 48.375 11.2812C48.7083 10.4688 49.2396 9.6875 49.9688 8.9375C51.0729 7.8125 52.25 7.08333 53.5 6.75C54.7708 6.39583 55.9688 6.30208 57.0938 6.46875C58.2188 6.61458 59.2188 6.9375 60.0938 7.4375C60.9688 7.9375 61.5833 8.47917 61.9375 9.0625C62.2917 9.64583 62.5521 10.0938 62.7188 10.4062C62.9062 10.6979 63.0417 10.9271 63.125 11.0938C63.2292 11.2396 63.3125 11.3542 63.375 11.4375C63.4583 11.5 63.5729 11.5938 63.7188 11.7188C63.8229 11.8229 63.9479 11.9375 64.0938 12.0625C64.2188 12.1667 64.3646 12.2917 64.5312 12.4375C64.6979 12.5833 64.8854 12.7396 65.0938 12.9062ZM64.3125 1.46875C64.5417 1.57292 64.8125 1.64583 65.125 1.6875C65.4583 1.72917 65.7708 1.75 66.0625 1.75C66.4167 1.75 66.7812 1.73958 67.1562 1.71875C67.5312 1.69792 67.9896 1.65625 68.5312 1.59375C68.9688 1.55208 69.5104 1.5 70.1562 1.4375C70.8021 1.375 71.5208 1.29167 72.3125 1.1875C72.0208 1.33333 71.7708 1.48958 71.5625 1.65625C71.3542 1.82292 71.1771 1.98958 71.0312 2.15625C70.8646 2.34375 70.7292 2.53125 70.625 2.71875C70.4792 2.96875 70.2812 3.40625 70.0312 4.03125C69.8021 4.63542 69.5625 5.3125 69.3125 6.0625C69.0833 6.8125 68.875 7.57292 68.6875 8.34375C68.5208 9.11458 68.4271 9.77083 68.4062 10.3125C68.3854 10.7708 68.3646 11.2917 68.3438 11.875C68.3229 12.375 68.3021 12.9896 68.2812 13.7188C68.2604 14.4479 68.2396 15.2812 68.2188 16.2188C69.7188 15.1354 70.875 14.2708 71.6875 13.625C72.5 12.9583 73.0938 12.4479 73.4688 12.0938C73.9062 11.6979 74.1667 11.4167 74.25 11.25C74.2292 11.125 74.1771 10.9896 74.0938 10.8438C73.9896 10.7188 73.8438 10.5729 73.6562 10.4062C73.4688 10.2396 73.1875 10.0521 72.8125 9.84375C73.3542 9.90625 73.8229 9.94792 74.2188 9.96875C74.6354 9.98958 74.9896 10.0104 75.2812 10.0312C75.6146 10.0521 75.9062 10.0521 76.1562 10.0312C76.4271 10.0312 76.7604 10.0208 77.1562 10C77.8438 9.97917 78.9062 9.94792 80.3438 9.90625C78.9479 10.6354 77.8438 11.2604 77.0312 11.7812C76.5729 12.0729 76.1667 12.3438 75.8125 12.5938C75.4583 12.8646 75.0938 13.1458 74.7188 13.4375C74.3854 13.6875 74 13.9792 73.5625 14.3125C73.1458 14.6458 72.7292 15 72.3125 15.375C73.0417 16.5625 73.6771 17.5417 74.2188 18.3125C74.7812 19.0833 75.25 19.7083 75.625 20.1875C76.0625 20.75 76.4479 21.1979 76.7812 21.5312C77.1146 21.8438 77.5521 22.1979 78.0938 22.5938C78.5521 22.9479 79.1458 23.3646 79.875 23.8438C80.625 24.3021 81.5312 24.8333 82.5938 25.4375C82.0521 25.3333 81.5312 25.2604 81.0312 25.2188C80.5312 25.1979 80.1042 25.1979 79.75 25.2188C79.3125 25.2396 78.9167 25.2812 78.5625 25.3438C78.1875 25.4271 77.7708 25.5312 77.3125 25.6562C76.9167 25.7604 76.4479 25.8958 75.9062 26.0625C75.3854 26.25 74.8125 26.4896 74.1875 26.7812C74.5833 26.4896 74.875 26.2083 75.0625 25.9375C75.2708 25.6875 75.4167 25.4792 75.5 25.3125C75.5833 25.1042 75.6146 24.9271 75.5938 24.7812C75.4896 24.5729 75.25 24.1458 74.875 23.5C74.5208 22.9583 74 22.1667 73.3125 21.125C72.625 20.0833 71.6458 18.6667 70.375 16.875C70.3125 16.8958 70.2083 16.9583 70.0625 17.0625C69.9375 17.1667 69.75 17.3125 69.5 17.5C69.25 17.6667 68.9167 17.9167 68.5 18.25L69.3438 23.7188C69.1562 23.8021 68.9479 23.875 68.7188 23.9375C68.5104 24 68.3125 24.0521 68.125 24.0938C67.8958 24.1562 67.6667 24.1979 67.4375 24.2188C67.2083 24.2396 66.9375 24.2812 66.625 24.3438C66.3542 24.3854 66.0312 24.4375 65.6562 24.5C65.2812 24.5833 64.8542 24.6771 64.375 24.7812C64.6458 24.5938 64.8646 24.375 65.0312 24.125C65.1979 23.8958 65.3333 23.6771 65.4375 23.4688C65.5417 23.2396 65.6354 23 65.7188 22.75C65.7604 22.5417 65.8021 22 65.8438 21.125C65.9062 20.25 65.9583 19.2083 66 18C66.0417 16.7708 66.0729 15.4583 66.0938 14.0625C66.1354 12.6667 66.1562 11.3542 66.1562 10.125C66.1562 8.875 66.1458 7.79167 66.125 6.875C66.1042 5.9375 66.0625 5.33333 66 5.0625C65.8958 4.72917 65.7708 4.375 65.625 4C65.5 3.66667 65.3229 3.29167 65.0938 2.875C64.8854 2.4375 64.625 1.96875 64.3125 1.46875Z" fill="black"/>
<path d="M77.4688 2.65625C78.9271 2.69792 80.1354 2.72917 81.0938 2.75C82.0729 2.75 82.8646 2.75 83.4688 2.75H85.125H94.4375C94.4792 3.16667 94.5104 3.57292 94.5312 3.96875C94.5729 4.34375 94.5938 4.67708 94.5938 4.96875C94.5938 5.32292 94.5833 5.64583 94.5625 5.9375C94.5417 6.22917 94.5104 6.54167 94.4688 6.875C94.4271 7.16667 94.3854 7.47917 94.3438 7.8125C94.3021 8.14583 94.2292 8.48958 94.125 8.84375C93.8333 7.71875 93.4375 6.86458 92.9375 6.28125C92.4583 5.69792 91.9688 5.27083 91.4688 5C90.8854 4.6875 90.2708 4.52083 89.625 4.5C88.7708 4.54167 88.1042 4.61458 87.625 4.71875C87.1458 4.82292 86.7708 4.96875 86.5 5.15625C86.2292 5.34375 86.0208 5.5625 85.875 5.8125C85.75 6.04167 85.6146 6.30208 85.4688 6.59375C85.3438 6.84375 85.2292 7.22917 85.125 7.75C85.0208 8.1875 84.9167 8.78125 84.8125 9.53125C84.7292 10.2812 84.6354 11.25 84.5312 12.4375C85.0938 12.2708 85.5417 12.1146 85.875 11.9688C86.2292 11.8229 86.5104 11.6979 86.7188 11.5938C86.9479 11.4688 87.1146 11.3542 87.2188 11.25C87.3021 11.125 87.4271 10.8958 87.5938 10.5625C87.7188 10.2708 87.8854 9.875 88.0938 9.375C88.3229 8.875 88.5938 8.1875 88.9062 7.3125C88.9479 8.27083 88.9688 9.07292 88.9688 9.71875C88.9688 10.3438 88.9792 10.8542 89 11.25C89 11.7083 89.0104 12.0729 89.0312 12.3438V13.5312C89.0312 13.9688 89.0312 14.5625 89.0312 15.3125C89.0521 16.0417 89.0833 16.9688 89.125 18.0938C88.875 17.3229 88.6458 16.7188 88.4375 16.2812C88.25 15.8229 88.0833 15.4792 87.9375 15.25C87.7708 14.9792 87.625 14.7917 87.5 14.6875C87.3542 14.6458 87.1562 14.6042 86.9062 14.5625C86.6771 14.5417 86.3854 14.5312 86.0312 14.5312C85.6979 14.5312 85.2708 14.5833 84.75 14.6875C84.6875 15.8333 84.6771 16.7604 84.7188 17.4688C84.7812 18.1562 84.8646 18.6875 84.9688 19.0625C85.0729 19.5 85.1979 19.8125 85.3438 20C85.5312 20.1875 85.9062 20.3438 86.4688 20.4688C87.0312 20.5729 87.6667 20.6146 88.375 20.5938C89.1042 20.5521 89.8438 20.4271 90.5938 20.2188C91.3438 20.0104 92.0104 19.6667 92.5938 19.1875C93.0312 18.7917 93.5 18.2917 94 17.6875C94.4167 17.1667 94.875 16.5104 95.375 15.7188C95.8958 14.9271 96.4062 13.9688 96.9062 12.8438C96.8229 13.7812 96.7604 14.5625 96.7188 15.1875C96.6979 15.7917 96.6667 16.2812 96.625 16.6562C96.5833 17.0938 96.5521 17.4271 96.5312 17.6562C96.5312 17.9062 96.5 18.2604 96.4375 18.7188C96.3958 19.1146 96.3229 19.6562 96.2188 20.3438C96.1354 21.0104 96.0208 21.8646 95.875 22.9062C94.8958 22.9271 93.9688 22.9479 93.0938 22.9688C92.2188 22.9688 91.4479 22.9792 90.7812 23C89.9896 23.0208 89.2604 23.0417 88.5938 23.0625C87.9062 23.0625 87.1458 23.0938 86.3125 23.1562C85.5833 23.1979 84.7188 23.2604 83.7188 23.3438C82.7396 23.4271 81.6562 23.5417 80.4688 23.6875C80.5729 22.2708 80.6458 20.9375 80.6875 19.6875C80.75 18.4167 80.7917 17.3021 80.8125 16.3438C80.8333 15.2188 80.8333 14.1771 80.8125 13.2188C80.9167 10.8229 80.875 8.88542 80.6875 7.40625C80.5 5.92708 80.2812 4.97917 80.0312 4.5625C79.9062 4.41667 79.7292 4.23958 79.5 4.03125C79.3125 3.86458 79.0521 3.66667 78.7188 3.4375C78.3854 3.20833 77.9688 2.94792 77.4688 2.65625ZM99.3125 20.5625C99.4583 19.875 99.5625 19.2708 99.625 18.75C99.7083 18.2083 99.7708 17.7604 99.8125 17.4062C99.8542 16.9896 99.875 16.6354 99.875 16.3438C99.8542 15.9896 99.8333 15.5729 99.8125 15.0938C99.8125 14.5938 99.7917 14.1042 99.75 13.625C99.7292 13.125 99.6979 12.6875 99.6562 12.3125C99.6146 11.9167 99.5625 11.6354 99.5 11.4688C99.4167 11.3021 99.3021 11.125 99.1562 10.9375C98.8646 10.5833 98.4375 10.2396 97.875 9.90625C98.3542 9.80208 98.7604 9.71875 99.0938 9.65625C99.4479 9.57292 99.7396 9.5 99.9688 9.4375C100.219 9.35417 100.438 9.28125 100.625 9.21875C100.792 9.15625 100.99 9.09375 101.219 9.03125C101.406 8.98958 101.635 8.9375 101.906 8.875C102.177 8.8125 102.49 8.73958 102.844 8.65625L102.75 11.5C103.417 10.7083 104.094 10.1146 104.781 9.71875C105.469 9.32292 106.115 9.04167 106.719 8.875C107.406 8.66667 108.083 8.5625 108.75 8.5625C109.583 8.60417 110.354 8.73958 111.062 8.96875C111.792 9.19792 112.417 9.46875 112.938 9.78125C113.479 10.0729 113.917 10.3854 114.25 10.7188C114.583 11.0521 114.781 11.3438 114.844 11.5938C115.094 12.4062 115.156 13.1562 115.031 13.8438C114.906 14.5104 114.74 15.1667 114.531 15.8125C114.344 16.4375 114.177 17.0625 114.031 17.6875C113.906 18.3125 113.958 18.9896 114.188 19.7188C114.271 19.9062 114.354 20.0938 114.438 20.2812C114.521 20.4479 114.625 20.6146 114.75 20.7812C114.875 20.9479 115.021 21.0833 115.188 21.1875C114.958 21.1667 114.729 21.1562 114.5 21.1562C114.271 21.1354 114.062 21.1146 113.875 21.0938C113.646 21.0729 113.438 21.0521 113.25 21.0312C113.042 21.0104 112.76 21 112.406 21C111.802 21 110.865 21.0312 109.594 21.0938C109.781 20.6562 109.927 20.2917 110.031 20C110.156 19.6875 110.26 19.4375 110.344 19.25C110.427 19.0208 110.49 18.8438 110.531 18.7188C110.781 18.1146 110.927 17.4271 110.969 16.6562C111.031 15.8854 110.979 15.1042 110.812 14.3125C110.75 14.0417 110.646 13.7188 110.5 13.3438C110.354 12.9688 110.156 12.6042 109.906 12.25C109.677 11.8958 109.396 11.5938 109.062 11.3438C108.75 11.0938 108.385 10.9479 107.969 10.9062C107.552 10.8646 107.083 10.9688 106.562 11.2188C106.062 11.4688 105.521 11.9271 104.938 12.5938C104.5 13.1562 104.156 13.8438 103.906 14.6562C103.677 15.3438 103.521 16.2083 103.438 17.25C103.354 18.2708 103.479 19.4688 103.812 20.8438C103.521 20.8021 103.25 20.7812 103 20.7812C102.75 20.7604 102.542 20.7396 102.375 20.7188C102.167 20.6979 101.979 20.6771 101.812 20.6562C101.625 20.6562 101.417 20.6458 101.188 20.625C100.979 20.625 100.719 20.625 100.406 20.625C100.094 20.6042 99.7292 20.5833 99.3125 20.5625ZM131.844 10.75C131.781 10.3333 131.729 9.98958 131.688 9.71875C131.646 9.42708 131.604 9.19792 131.562 9.03125C131.521 8.82292 131.49 8.66667 131.469 8.5625C131.427 8.45833 131.375 8.34375 131.312 8.21875C131.271 8.11458 131.198 7.98958 131.094 7.84375C131.01 7.69792 130.906 7.53125 130.781 7.34375C131.052 7.42708 131.323 7.47917 131.594 7.5C131.885 7.52083 132.156 7.54167 132.406 7.5625C132.677 7.58333 132.958 7.58333 133.25 7.5625C133.542 7.5625 133.875 7.55208 134.25 7.53125C134.583 7.51042 134.979 7.5 135.438 7.5C135.917 7.47917 136.458 7.44792 137.062 7.40625C136.708 7.48958 136.406 7.63542 136.156 7.84375C135.927 8.03125 135.729 8.23958 135.562 8.46875C135.375 8.71875 135.219 8.98958 135.094 9.28125C134.99 9.55208 134.927 10.0729 134.906 10.8438C134.885 11.5938 134.885 12.4896 134.906 13.5312C134.927 14.5521 134.948 15.6562 134.969 16.8438C135.01 18.0312 135.031 19.1667 135.031 20.25C135.052 21.3333 135.052 22.3229 135.031 23.2188C135.01 24.0938 134.958 24.7396 134.875 25.1562C134.583 26.4688 134.042 27.5312 133.25 28.3438C132.458 29.1771 131.417 29.625 130.125 29.6875C128.562 29.75 127.323 29.6042 126.406 29.25C125.51 28.8958 124.812 28.4583 124.312 27.9375C123.812 27.4375 123.438 26.9271 123.188 26.4062C122.938 25.8854 122.677 25.4896 122.406 25.2188C122.156 24.9896 121.906 24.7708 121.656 24.5625C121.427 24.3958 121.188 24.2292 120.938 24.0625C120.708 23.8958 120.479 23.7917 120.25 23.75C120.854 23.7708 121.396 23.7812 121.875 23.7812C122.354 23.7812 122.76 23.7812 123.094 23.7812C123.469 23.7812 123.802 23.7708 124.094 23.75H125.094H127.938C127.521 23.875 127.208 24.0104 127 24.1562C126.792 24.3229 126.646 24.4896 126.562 24.6562C126.479 24.8438 126.438 25.0312 126.438 25.2188C126.521 25.7188 126.792 26.0833 127.25 26.3125C127.708 26.5417 128.333 26.6771 129.125 26.7188C129.896 26.7604 130.427 26.7396 130.719 26.6562C131.01 26.5938 131.24 26.4688 131.406 26.2812C131.74 25.7812 132.021 25.1354 132.25 24.3438C132.417 23.6771 132.531 22.8125 132.594 21.75C132.677 20.6667 132.583 19.3438 132.312 17.7812C131.646 18.6979 130.875 19.3854 130 19.8438C129.125 20.3021 128.292 20.6354 127.5 20.8438C126.562 21.0729 125.615 21.1875 124.656 21.1875C122.135 21.0833 120.25 20.5 119 19.4375C117.75 18.375 117.177 16.9479 117.281 15.1562C117.344 14.2604 117.615 13.3646 118.094 12.4688C118.594 11.5729 119.24 10.7708 120.031 10.0625C120.844 9.35417 121.771 8.79167 122.812 8.375C123.854 7.95833 124.938 7.78125 126.062 7.84375C126.917 7.92708 127.719 8.08333 128.469 8.3125C129.115 8.52083 129.75 8.8125 130.375 9.1875C131.021 9.5625 131.51 10.0833 131.844 10.75ZM121.906 13.875C121.781 14.6875 121.833 15.4479 122.062 16.1562C122.312 16.8646 122.656 17.4792 123.094 18C123.531 18.5 124.021 18.8958 124.562 19.1875C125.104 19.4583 125.615 19.5833 126.094 19.5625C127.094 19.5417 127.958 19.0938 128.688 18.2188C129.417 17.3229 129.854 15.9896 130 14.2188C130.062 13.3438 129.948 12.5938 129.656 11.9688C129.385 11.3229 129.042 10.8021 128.625 10.4062C128.208 10.0104 127.771 9.72917 127.312 9.5625C126.854 9.39583 126.49 9.32292 126.219 9.34375C125.844 9.38542 125.427 9.5 124.969 9.6875C124.531 9.85417 124.104 10.1146 123.688 10.4688C123.271 10.8021 122.896 11.25 122.562 11.8125C122.25 12.375 122.031 13.0625 121.906 13.875ZM138.062 24.875C138.271 24.5625 138.438 24.2708 138.562 24C138.688 23.7292 138.792 23.5 138.875 23.3125C138.958 23.0833 139.021 22.875 139.062 22.6875C139.083 22.5625 139.094 22.1979 139.094 21.5938C139.094 20.9896 139.073 20.2292 139.031 19.3125C139.01 18.3958 138.979 17.3646 138.938 16.2188C138.917 15.0729 138.875 13.9062 138.812 12.7188C138.771 11.5312 138.719 10.375 138.656 9.25C138.615 8.125 138.573 7.11458 138.531 6.21875C138.49 5.30208 138.448 4.55208 138.406 3.96875C138.365 3.38542 138.333 3.05208 138.312 2.96875C138.271 2.84375 138.198 2.71875 138.094 2.59375C137.885 2.34375 137.531 2.10417 137.031 1.875C138.094 1.60417 138.906 1.38542 139.469 1.21875C139.802 1.13542 140.094 1.05208 140.344 0.96875C140.573 0.885417 140.802 0.802083 141.031 0.71875C141.219 0.635417 141.427 0.541667 141.656 0.4375C141.885 0.3125 142.094 0.177083 142.281 0.03125C142.177 0.635417 142.094 1.21875 142.031 1.78125C141.969 2.34375 141.917 2.86458 141.875 3.34375C141.833 3.88542 141.812 4.40625 141.812 4.90625C141.708 5.92708 141.646 7.04167 141.625 8.25C141.625 9.4375 141.635 10.6458 141.656 11.875C141.677 13.1042 141.719 14.3021 141.781 15.4688C141.844 16.6354 141.906 17.6979 141.969 18.6562C142.052 19.5938 142.125 20.3958 142.188 21.0625C142.271 21.7083 142.333 22.125 142.375 22.3125C142.458 22.625 142.542 22.9271 142.625 23.2188C142.708 23.4688 142.802 23.7292 142.906 24C143.01 24.2917 143.135 24.5208 143.281 24.6875H140.25C139.979 24.6875 139.719 24.6979 139.469 24.7188C139.24 24.7396 139 24.7604 138.75 24.7812C138.5 24.8021 138.271 24.8333 138.062 24.875ZM144.406 10.0312L150.156 10.0938C149.823 11.3646 149.573 12.4479 149.406 13.3438C149.26 14.2396 149.167 14.9896 149.125 15.5938C149.042 16.2812 149.021 16.8646 149.062 17.3438C149.125 17.7812 149.229 18.25 149.375 18.75C149.5 19.1667 149.688 19.6458 149.938 20.1875C150.188 20.7292 150.521 21.2708 150.938 21.8125C150.688 21.7292 150.417 21.6667 150.125 21.625C149.833 21.5833 149.562 21.5521 149.312 21.5312C149.021 21.5104 148.729 21.5104 148.438 21.5312C148.146 21.5521 147.823 21.5833 147.469 21.625C147.177 21.6667 146.823 21.7188 146.406 21.7812C145.99 21.8438 145.552 21.9271 145.094 22.0312C145.406 21.0938 145.646 20.2812 145.812 19.5938C146 18.9062 146.135 18.3333 146.219 17.875C146.302 17.3333 146.354 16.8958 146.375 16.5625C146.375 16.1458 146.375 15.6771 146.375 15.1562C146.375 14.6146 146.375 14.0938 146.375 13.5938C146.375 13.0938 146.365 12.6562 146.344 12.2812C146.323 11.8854 146.281 11.6354 146.219 11.5312L145.906 11.2188C145.781 11.1146 145.594 10.9688 145.344 10.7812C145.115 10.5729 144.802 10.3229 144.406 10.0312ZM146.625 5.21875C147.062 4.98958 147.5 4.92708 147.938 5.03125C148.396 5.13542 148.75 5.33333 149 5.625C149.25 5.91667 149.333 6.26042 149.25 6.65625C149.188 7.05208 148.854 7.4375 148.25 7.8125C147.646 8.16667 147.115 8.29167 146.656 8.1875C146.198 8.08333 145.875 7.86458 145.688 7.53125C145.5 7.19792 145.469 6.8125 145.594 6.375C145.719 5.91667 146.062 5.53125 146.625 5.21875ZM165.844 6.15625C165.656 6.61458 165.49 7.03125 165.344 7.40625C165.219 7.78125 165.104 8.11458 165 8.40625C164.896 8.73958 164.802 9.03125 164.719 9.28125C164.635 9.57292 164.542 9.90625 164.438 10.2812C164.333 10.6146 164.198 11.0312 164.031 11.5312C163.885 12.0104 163.708 12.5833 163.5 13.25C163.333 12.25 163.031 11.4583 162.594 10.875C162.156 10.2708 161.708 9.80208 161.25 9.46875C160.708 9.09375 160.125 8.82292 159.5 8.65625C158.375 8.46875 157.562 8.48958 157.062 8.71875C156.562 8.94792 156.229 9.23958 156.062 9.59375C155.979 9.73958 155.885 9.92708 155.781 10.1562C155.698 10.3646 155.625 10.5833 155.562 10.8125C155.521 11.0417 155.51 11.2708 155.531 11.5C155.552 11.7292 155.646 11.9167 155.812 12.0625C155.917 12.1667 156.188 12.3125 156.625 12.5C157.062 12.6667 157.583 12.8646 158.188 13.0938C158.812 13.3021 159.469 13.5312 160.156 13.7812C160.865 14.0312 161.531 14.2812 162.156 14.5312C162.781 14.7812 163.323 15.0312 163.781 15.2812C164.24 15.5312 164.542 15.7604 164.688 15.9688C164.812 16.1771 164.948 16.4583 165.094 16.8125C165.26 17.1458 165.375 17.5208 165.438 17.9375C165.521 18.3333 165.542 18.75 165.5 19.1875C165.479 19.6042 165.365 20.0208 165.156 20.4375C164.948 20.8542 164.615 21.2396 164.156 21.5938C163.719 21.9479 163.125 22.2396 162.375 22.4688C161.5 22.7396 160.656 22.8125 159.844 22.6875C159.031 22.5625 158.281 22.375 157.594 22.125C156.927 21.875 156.344 21.6354 155.844 21.4062C155.344 21.1562 154.99 21.0521 154.781 21.0938C154.552 21.1354 154.292 21.25 154 21.4375C153.708 21.625 153.427 21.8229 153.156 22.0312C152.906 22.2188 152.688 22.3958 152.5 22.5625C152.312 22.7083 152.219 22.7604 152.219 22.7188C152.219 22.6771 152.25 22.5521 152.312 22.3438C152.396 22.1354 152.479 21.8854 152.562 21.5938C152.667 21.2812 152.76 20.9479 152.844 20.5938C152.948 20.2188 153.021 19.8646 153.062 19.5312C153.104 19.2604 153.156 18.9271 153.219 18.5312C153.26 18.1771 153.312 17.75 153.375 17.25C153.458 16.7292 153.552 16.1042 153.656 15.375C153.76 15.9167 153.906 16.3854 154.094 16.7812C154.302 17.1771 154.5 17.5208 154.688 17.8125C154.917 18.1458 155.135 18.4271 155.344 18.6562C155.656 18.9479 156.021 19.2188 156.438 19.4688C156.875 19.7188 157.312 19.9375 157.75 20.125C158.188 20.2917 158.604 20.3958 159 20.4375C159.396 20.4792 159.729 20.4375 160 20.3125C160.271 20.1875 160.5 19.9583 160.688 19.625C160.896 19.2917 161.042 18.9271 161.125 18.5312C161.208 18.1354 161.24 17.7604 161.219 17.4062C161.198 17.0312 161.104 16.7292 160.938 16.5C160.812 16.3542 160.521 16.1667 160.062 15.9375C159.625 15.7083 159.094 15.4583 158.469 15.1875C157.865 14.9167 157.219 14.6354 156.531 14.3438C155.865 14.0521 155.229 13.7604 154.625 13.4688C154.042 13.1562 153.552 12.8646 153.156 12.5938C152.781 12.3021 152.573 12.0417 152.531 11.8125C152.49 11.4792 152.458 11.1146 152.438 10.7188C152.417 10.3021 152.438 9.89583 152.5 9.5C152.583 9.08333 152.729 8.6875 152.938 8.3125C153.167 7.9375 153.5 7.625 153.938 7.375C154.229 7.20833 154.615 7.08333 155.094 7C155.573 6.91667 156.104 6.875 156.688 6.875C157.271 6.85417 157.875 6.875 158.5 6.9375C159.125 6.97917 159.719 7.04167 160.281 7.125C160.865 7.1875 161.385 7.27083 161.844 7.375C162.323 7.47917 162.688 7.57292 162.938 7.65625C163.229 7.76042 163.542 7.77083 163.875 7.6875C164.167 7.625 164.479 7.48958 164.812 7.28125C165.146 7.07292 165.49 6.69792 165.844 6.15625ZM166.812 0.3125C167.292 0.395833 167.729 0.458333 168.125 0.5C168.521 0.520833 168.854 0.541667 169.125 0.5625C169.438 0.583333 169.708 0.59375 169.938 0.59375C170.25 0.572917 170.615 0.541667 171.031 0.5C171.385 0.458333 171.812 0.40625 172.312 0.34375C172.833 0.28125 173.427 0.197917 174.094 0.09375C173.781 0.260417 173.521 0.427083 173.312 0.59375C173.104 0.739583 172.938 0.895833 172.812 1.0625C172.667 1.25 172.552 1.42708 172.469 1.59375C172.365 1.86458 172.25 2.42708 172.125 3.28125C172 4.01042 171.844 5.09375 171.656 6.53125C171.49 7.96875 171.271 9.91667 171 12.375C171.75 11.625 172.458 11.0625 173.125 10.6875C173.812 10.2917 174.417 10.0104 174.938 9.84375C175.542 9.65625 176.104 9.5625 176.625 9.5625C177.271 9.625 177.927 9.83333 178.594 10.1875C179.281 10.5208 179.917 10.9167 180.5 11.375C181.104 11.8333 181.625 12.3229 182.062 12.8438C182.521 13.3646 182.844 13.8229 183.031 14.2188C183.156 14.4896 183.219 14.8438 183.219 15.2812C183.219 15.6979 183.177 16.1562 183.094 16.6562C183.01 17.1562 182.896 17.6667 182.75 18.1875C182.604 18.7083 182.458 19.1979 182.312 19.6562C182.188 20.1146 182.073 20.5208 181.969 20.875C181.865 21.2083 181.802 21.4479 181.781 21.5938C181.74 21.9062 181.76 22.2083 181.844 22.5C181.906 22.75 182.031 23.0208 182.219 23.3125C182.406 23.5833 182.688 23.8125 183.062 24C182.771 23.9583 182.458 23.9271 182.125 23.9062C181.812 23.8646 181.51 23.8333 181.219 23.8125C180.885 23.7917 180.552 23.7812 180.219 23.7812H179.094C178.74 23.7812 178.333 23.7917 177.875 23.8125C177.417 23.8125 176.917 23.8229 176.375 23.8438C176.667 23.7396 176.917 23.6042 177.125 23.4375C177.333 23.25 177.51 23.0729 177.656 22.9062C177.823 22.7188 177.969 22.5208 178.094 22.3125C178.177 22.1458 178.281 21.8333 178.406 21.375C178.531 20.8958 178.646 20.3542 178.75 19.75C178.854 19.125 178.927 18.4688 178.969 17.7812C179.031 17.0938 179.042 16.4375 179 15.8125C178.979 15.1667 178.885 14.5938 178.719 14.0938C178.573 13.5938 178.344 13.2292 178.031 13C177.094 12.2917 176.24 11.9479 175.469 11.9688C174.719 11.9688 174 12.2708 173.312 12.875C173.062 13.1042 172.823 13.3333 172.594 13.5625C172.385 13.7708 172.156 14.0208 171.906 14.3125C171.656 14.5833 171.427 14.8646 171.219 15.1562C171.219 15.4688 171.229 15.8125 171.25 16.1875C171.271 16.5625 171.292 16.9271 171.312 17.2812C171.333 17.6771 171.365 18.0729 171.406 18.4688C171.448 19.0729 171.51 19.6667 171.594 20.25C171.656 20.75 171.74 21.3021 171.844 21.9062C171.948 22.4896 172.083 23.0208 172.25 23.5C171.979 23.4583 171.698 23.4479 171.406 23.4688C171.115 23.4688 170.833 23.4688 170.562 23.4688C170.25 23.4896 169.948 23.5 169.656 23.5C169.385 23.5208 169.104 23.5521 168.812 23.5938C168.562 23.6354 168.292 23.6771 168 23.7188C167.708 23.7396 167.427 23.7812 167.156 23.8438C167.406 23.3646 167.615 22.8958 167.781 22.4375C167.948 21.9583 168.083 21.5417 168.188 21.1875C168.312 20.7708 168.417 20.3646 168.5 19.9688C168.562 19.6562 168.604 19.0625 168.625 18.1875C168.667 17.2917 168.698 16.2708 168.719 15.125C168.74 13.9583 168.75 12.7292 168.75 11.4375C168.75 10.1458 168.74 8.91667 168.719 7.75C168.698 6.58333 168.656 5.5625 168.594 4.6875C168.552 3.8125 168.5 3.20833 168.438 2.875C168.354 2.54167 168.24 2.20833 168.094 1.875C167.969 1.58333 167.802 1.30208 167.594 1.03125C167.385 0.739583 167.125 0.5 166.812 0.3125Z" fill="#9532FF"/>
</svg>
